<svg xmlns="http://www.w3.org/2000/svg" viewBox="0 0 256 256" enable-background="new 0 0 256 256"><style type="text/css">.st0{fill:#4F9AD4;}</style><path class="st0" d="M40.8 109.1s-1.8-4.4-1.8-9.9l1.8-9.9c-.3 0-36.9 9.9-36.9 9.9s36.6 9.9 36.9 9.9zM214.4 89.4s1.8 4.4 1.8 9.9l-1.8 9.9c.3 0 36.9-9.9 36.9-9.9s-36.6-9.9-36.9-9.9z"/><ellipse class="st0" cx="89.7" cy="98.6" rx="11.1" ry="11.1"/><path class="st0" d="M195.2 84.9c1.4 0 2.6 1.2 2.6 2.6v23.5c0 1.4-1.2 2.6-2.6 2.6h-135.2c-1.4 0-2.6-1.2-2.6-2.6v-23.5c0-1.4 1.2-2.6 2.6-2.6h135.2m0-13.4h-135.2c-8.8 0-15.9 7.1-15.9 16v23.5c0 8.8 7.1 16 15.9 16h135.3c8.8 0 15.9-7.1 15.9-16v-23.5c-.1-8.8-7.2-16-16-16zM126.6 167.1c-20 0-37 30.5-37 66.5 0 4.1.2 8.1.6 12.1 10.3 3.3 22.8 5.2 36.3 5.2s26-1.9 36.3-5.2c.4-3.9.7-8 .7-12.1.1-36-16.8-66.5-36.9-66.5zm-22.3 64.9c0 2.4-2 4.4-4.4 4.4-2.4 0-4.4-2-4.4-4.4v-15.3c0-2.4 2-4.4 4.4-4.4 2.4 0 4.4 2 4.4 4.4v15.3zm17.6 0c0 2.4-2 4.4-4.4 4.4-2.4 0-4.4-2-4.4-4.4v-15.3c0-2.4 2-4.4 4.4-4.4 2.4 0 4.4 2 4.4 4.4v15.3zm17.5 0c0 2.4-2 4.4-4.4 4.4-2.4 0-4.4-2-4.4-4.4v-15.3c0-2.4 2-4.4 4.4-4.4s4.4 2 4.4 4.4v15.3zm17.6 0c0 2.4-2 4.4-4.4 4.4-2.4 0-4.4-2-4.4-4.4v-15.3c0-2.4 2-4.4 4.4-4.4 2.4 0 4.4 2 4.4 4.4v15.3zM63.6 115.5v11.4h91.3c1.7 0 3.1 1.4 3.1 3.1 0 1.7-1.4 3.1-3.1 3.1h-91.3v89.5c0 7.6 6.7 14.5 17.6 19.6-.2-2.8-.3-5.6-.3-8.5 0-42.2 20.1-75.3 45.7-75.3s45.7 33.1 45.7 75.3c0 2.9-.1 5.7-.3 8.5 10.9-5.1 17.6-12 17.6-19.6v-107.1h-126zM126.6 57.9c-2.2 0-4-1.8-4-4s1.8-4 4-4h62.5c-.7-2.2-1.5-4.4-2.4-6.5h-37.1c-3.7 0-6.6-3-6.6-6.7s3-6.7 6.6-6.7h29.4c-12-16.3-31-26.6-52.4-26.6-33.5 0-61.2 25.3-65.3 59.6h130.7c-.2-1.7-.5-3.4-.8-5.1h-64.6zm4.6-28.1c3.8 0 6.9 3.1 6.9 7 0 3.8-3.1 7-6.9 7-3.8 0-6.9-3.1-6.9-7s3.1-7 6.9-7z"/></svg>